<?xml version="1.0" encoding="iso-8859-1"?>
<!-- Generator: Adobe Illustrator 19.0.0, SVG Export Plug-In . SVG Version: 6.00 Build 0)  -->
<svg version="1.1" id="Layer_1" xmlns="http://www.w3.org/2000/svg" xmlns:xlink="http://www.w3.org/1999/xlink" x="0px" y="0px"
	 viewBox="0 0 511.999 511.999" style="enable-background:new 0 0 511.999 511.999;" xml:space="preserve">
<path style="fill:#507C5C;" d="M343.567,410.466c-4.47,0-8.879-2.047-11.741-5.918c-4.786-6.478-3.414-15.609,3.064-20.394
	c63.077-46.604,106.005-87.444,124.146-118.108c16.68-28.196,23.798-54.216,23.798-87.003c0-78.62-55.507-113.812-110.516-113.812
	c-50.687,0-73.077,27.737-81.912,44.269c-3.137,5.87-9.229,9.52-15.901,9.525c-0.004,0-0.009,0-0.015,0
	c-6.666,0-12.758-3.64-15.901-9.501c-8.869-16.543-31.33-44.294-82.106-44.294c-53.418,0-94.275,30.674-106.628,80.051
	c-1.954,7.812-9.871,12.562-17.686,10.608c-7.813-1.954-12.563-9.874-10.608-17.686c15.522-62.047,68.481-102.14,134.922-102.14
	c52.387,0,82.027,23.585,97.994,44.456c15.929-20.874,45.51-44.456,97.839-44.456c37.634,0,72.271,13.168,97.531,37.078
	c27.575,26.1,42.15,62.719,42.15,105.899c0,37.869-8.594,69.28-27.861,101.852c-25.408,42.948-85.762,92.613-131.916,126.715
	C349.614,409.537,346.577,410.466,343.567,410.466z"/>
<path style="fill:#CFF09E;" d="M95.706,207.913c37.86,0,54.846,21.221,61.531,33.685c0.84,1.565,3.118,1.563,3.955-0.003
	c6.66-12.465,23.554-33.682,61.411-33.682c43.126,0,81.062,29.44,81.062,83.196c0,21.753-4.433,40.389-16.737,61.187
	c-25.074,42.384-107.674,97.327-124.641,108.154c-1.875,1.197-4.251,1.2-6.131,0.007c-16.98-10.775-99.596-65.446-124.865-108.162
	C18.985,331.5,14.583,312.863,14.583,291.11C14.583,237.353,52.581,207.913,95.706,207.913z"/>
<path style="fill:#507C5C;" d="M159.214,475.934c-3.854,0-7.614-1.094-10.874-3.163c-10.277-6.52-101.237-65.101-129.602-113.048
	C5.779,337.815,0,316.656,0,291.11c0-29.424,10.013-54.442,28.953-72.353c17.34-16.397,41.046-25.427,66.753-25.427
	c32.228,0,52.05,13.542,63.494,26.08c11.421-12.541,31.209-26.08,63.403-26.08c25.704,0,49.401,9.031,66.727,25.431
	c18.918,17.906,28.918,42.925,28.918,72.348c0,25.51-5.788,46.669-18.768,68.612c-28.158,47.597-119.073,106.466-129.347,113.021
	C166.858,474.831,163.084,475.934,159.214,475.934z M95.706,222.496c-33.121,0-66.54,21.217-66.54,68.614
	c0,20.296,4.389,36.375,14.675,53.762c19.338,32.69,79.443,76.929,115.357,100.213c34.049-22.242,95.997-67.793,115.177-100.213
	c10.307-17.424,14.704-33.503,14.704-53.762c0-47.397-33.389-68.614-66.479-68.614c-28.657,0-42.219,14.123-48.549,25.972
	c-2.927,5.48-8.614,8.887-14.839,8.887c-6.214,0-11.895-3.396-14.826-8.862C138.026,236.631,124.421,222.496,95.706,222.496z"/>
<g>
</g>
<g>
</g>
<g>
</g>
<g>
</g>
<g>
</g>
<g>
</g>
<g>
</g>
<g>
</g>
<g>
</g>
<g>
</g>
<g>
</g>
<g>
</g>
<g>
</g>
<g>
</g>
<g>
</g>
</svg>
