<?xml version="1.0" encoding="iso-8859-1"?>
<!-- Generator: Adobe Illustrator 19.0.0, SVG Export Plug-In . SVG Version: 6.00 Build 0)  -->
<svg version="1.1" id="Layer_1" xmlns="http://www.w3.org/2000/svg" xmlns:xlink="http://www.w3.org/1999/xlink" x="0px" y="0px"
	 viewBox="0 0 512 512" style="enable-background:new 0 0 512 512;" xml:space="preserve">
<path style="fill:#181818;" d="M186.182,182.109c0-38.559,31.259-69.818,69.818-69.818s69.818,31.259,69.818,69.818V256H186.182
	V182.109z"/>
<polygon style="fill:#4C5870;" points="151.273,217.018 168.145,469.527 343.855,469.527 360.727,217.018 "/>
<circle style="fill:#181818;" cx="256" cy="48.291" r="40.727"/>
<path style="fill:#4C5870;" d="M256,147.479c-6.427,0-11.636,5.211-11.636,11.636v57.903h23.273v-57.903
	C267.636,152.69,262.426,147.479,256,147.479z"/>
<path style="fill:#A2A9AF;" d="M395.636,228.655H116.364c-6.427,0-11.636-5.211-11.636-11.636s5.21-11.636,11.636-11.636h279.273
	c6.426,0,11.636,5.211,11.636,11.636S402.062,228.655,395.636,228.655z"/>
<g>
	<circle style="fill:#181818;" cx="349.091" cy="370.618" r="40.727"/>
	<path style="fill:#181818;" d="M349.091,434.618c-31.429,0-58.007,20.766-66.762,49.325l43.49,20.493h46.545l43.49-20.493
		C407.098,455.384,380.52,434.618,349.091,434.618z"/>
	<circle style="fill:#181818;" cx="162.909" cy="370.618" r="40.727"/>
	<path style="fill:#181818;" d="M162.909,434.618c-31.429,0-58.007,20.766-66.762,49.325l43.49,20.493h46.545l43.49-20.493
		C220.916,455.384,194.338,434.618,162.909,434.618z"/>
</g>
<g>
	<circle style="fill:#269AF2;" cx="256" cy="370.618" r="40.727"/>
	<path style="fill:#269AF2;" d="M256,434.618c-38.559,0-69.818,31.259-69.818,69.818h139.636
		C325.818,465.877,294.559,434.618,256,434.618z"/>
	<circle style="fill:#269AF2;" cx="442.182" cy="370.618" r="40.727"/>
	<path style="fill:#269AF2;" d="M442.182,434.618c-38.559,0-69.818,31.259-69.818,69.818H512
		C512,465.877,480.741,434.618,442.182,434.618z"/>
	<circle style="fill:#269AF2;" cx="69.818" cy="370.618" r="40.727"/>
	<path style="fill:#269AF2;" d="M69.818,434.618C31.259,434.618,0,465.877,0,504.436h139.636
		C139.636,465.877,108.378,434.618,69.818,434.618z"/>
</g>
<g>
</g>
<g>
</g>
<g>
</g>
<g>
</g>
<g>
</g>
<g>
</g>
<g>
</g>
<g>
</g>
<g>
</g>
<g>
</g>
<g>
</g>
<g>
</g>
<g>
</g>
<g>
</g>
<g>
</g>
</svg>
