<?xml version="1.0" encoding="iso-8859-1"?>
<!-- Generator: Adobe Illustrator 18.0.0, SVG Export Plug-In . SVG Version: 6.00 Build 0)  -->
<!DOCTYPE svg PUBLIC "-//W3C//DTD SVG 1.1//EN" "http://www.w3.org/Graphics/SVG/1.1/DTD/svg11.dtd">
<svg version="1.1" id="Capa_1" xmlns="http://www.w3.org/2000/svg" xmlns:xlink="http://www.w3.org/1999/xlink" x="0px" y="0px"
	 viewBox="0 0 409.689 409.689" style="enable-background:new 0 0 409.689 409.689;" xml:space="preserve">
<g>
	<path d="M235.429,384.429c0,0-0.43-0.114-1.221-0.317l-13.693-123.585c-2.004-17.073-0.768-33.674,4.438-49.888
		c3.458-10.774,8.466-20.948,15.541-29.824c3.206-4.022,6.802-7.768,10.761-11.053c0.798-0.662,6.862-4.275,6.862-4.894
		c0,0.019-11.134,4.528-12.029,5.007c-5.668,3.033-10.762,6.814-15.695,10.908c-6.254,5.702-11.791,11.886-16.639,18.72
		l-9.039-81.582l-8.926,81.248c-5.262-7.409-11.309-14.142-18.33-20c-4.855-4.053-10.203-7.503-15.836-10.368
		c-0.829-0.414-9.966-3.841-9.966-3.933c0,0.678,7.505,5.417,8.425,6.232c3.861,3.475,7.439,7.281,10.539,11.456
		c6.527,8.261,11.002,18.118,14.201,28.082c4.826,15.038,6.107,30.482,4.629,46.231l-12.745,116.021
		c-11.337-1.341-22.081-1.836-29.825-0.563c-16.778,2.76-38.275,13.066-42.713,31.343c27.801-23.405,71.125-7.519,101.879,0.685
		c18.406,4.909,37.916,7.203,56.768,3.513c16.701-3.251,38.229-13.139,42.709-31.393
		C286.548,392.243,264.811,391.703,235.429,384.429z"/>
	<g>
		<path d="M191.065,72.756c-1.32-0.733-3.022-1.682,0.143,0.08c3.479,1.935,10.413,3.93,13.637,9.19l0,0
			c3.224-5.261,10.158-7.256,13.637-9.19c5.527-3.075,10.75-5.979,10.75-20.069c0-15.108-7.994-26.432-14.409-35.529
			c-4.109-5.821-7.655-10.845-7.655-14.916c0-1.281-1.037-2.321-2.322-2.321c-1.285,0-2.322,1.04-2.322,2.321
			c0,5.306-3.994,11.078-8.624,17.763c-6.296,9.104-13.44,19.425-13.44,32.683C180.458,66.736,185.593,69.712,191.065,72.756z"/>
		<g>
			<path d="M139.108,170.629c-0.734,1.321-1.68,3.022,0.081-0.142c1.934-3.478,3.929-10.413,9.188-13.637l0,0
				c-5.26-3.224-7.254-10.158-9.188-13.638c-3.074-5.527-5.98-10.75-20.068-10.75c-15.11,0-26.433,7.994-35.531,14.41
				c-5.819,4.109-10.845,7.655-14.915,7.655c-1.281,0-2.32,1.038-2.32,2.322c0,1.285,1.039,2.321,2.32,2.321
				c5.305,0,11.077,3.995,17.762,8.625c9.104,6.297,19.427,13.441,32.685,13.441C133.09,181.238,136.064,176.102,139.108,170.629z"
				/>
			<path d="M290.568,181.238c13.261,0,23.58-7.145,32.685-13.441c6.685-4.63,12.457-8.625,17.762-8.625
				c1.281,0,2.32-1.036,2.32-2.321c0-1.284-1.039-2.322-2.32-2.322c-4.07,0-9.096-3.546-14.915-7.655
				c-9.099-6.416-20.421-14.41-35.531-14.41c-14.089,0-16.994,5.223-20.068,10.75c-1.935,3.479-3.929,10.414-9.189,13.638l0,0
				c5.26,3.224,7.254,10.159,9.189,13.637c1.761,3.164,0.815,1.463,0.081,0.142C273.625,176.102,276.6,181.238,290.568,181.238z"/>
		</g>
		<g>
			<path d="M233.403,96.596c-0.558-1.957-1.274-4.481,0.061,0.212c1.469,5.154,6.174,13.66,4.235,21.74l0,0
				c8.078-1.939,16.585,2.764,21.739,4.235c8.197,2.337,15.935,4.545,29.353-8.874c14.391-14.393,17.558-32.789,20.116-47.564
				c1.625-9.455,3.031-17.618,6.91-21.495c1.224-1.222,1.228-3.198,0-4.422c-1.222-1.223-3.2-1.222-4.42,0
				c-5.054,5.054-14.356,6.745-25.132,8.702c-14.668,2.675-31.302,5.698-43.928,18.326
				C229.036,80.759,231.091,88.485,233.403,96.596z"/>
			<path d="M167.351,67.456c-12.626-12.628-29.26-15.651-43.928-18.326c-10.775-1.957-20.078-3.648-25.132-8.702
				c-1.22-1.222-3.198-1.223-4.42,0c-1.228,1.224-1.224,3.2,0,4.422c3.879,3.877,5.285,12.04,6.91,21.495
				c2.56,14.775,5.726,33.172,20.116,47.564c13.418,13.419,21.157,11.211,29.353,8.874c5.154-1.472,13.661-6.175,21.74-4.235l0,0
				c-1.939-8.08,2.766-16.586,4.234-21.74c1.335-4.692,0.618-2.169,0.061-0.212C178.599,88.485,180.653,80.759,167.351,67.456z"/>
		</g>
		<g>
			<path d="M155.028,225.995c0.558,1.958,1.275,4.481-0.061-0.21c-1.469-5.155-6.174-13.66-4.234-21.741l0,0
				c-8.079,1.939-16.586-2.764-21.74-4.235c-8.196-2.336-15.935-4.544-29.354,8.875c-14.388,14.391-17.557,32.788-20.116,47.564
				c-1.625,9.455-3.031,17.617-6.909,21.493c-1.225,1.224-1.229,3.2,0,4.424c1.221,1.223,3.199,1.222,4.419,0
				c5.054-5.055,14.356-6.745,25.132-8.702c14.668-2.676,31.302-5.699,43.928-18.326
				C159.397,241.834,157.341,234.107,155.028,225.995z"/>
			<path d="M263.597,255.137c12.626,12.627,29.26,15.65,43.928,18.326c10.775,1.957,20.078,3.647,25.132,8.702
				c1.22,1.222,3.198,1.223,4.419,0c1.228-1.224,1.225-3.2,0-4.424c-3.878-3.876-5.284-12.038-6.909-21.493
				c-2.559-14.776-5.727-33.174-20.116-47.564c-13.419-13.419-21.157-11.211-29.354-8.875c-5.154,1.472-13.661,6.175-21.74,4.235
				l0,0c1.939,8.081-2.766,16.586-4.234,21.741c-1.336,4.691-0.618,2.168-0.061,0.21
				C252.349,234.107,250.292,241.834,263.597,255.137z"/>
		</g>
	</g>
</g>
<g>
</g>
<g>
</g>
<g>
</g>
<g>
</g>
<g>
</g>
<g>
</g>
<g>
</g>
<g>
</g>
<g>
</g>
<g>
</g>
<g>
</g>
<g>
</g>
<g>
</g>
<g>
</g>
<g>
</g>
</svg>
